<svg width="80" height="80" viewBox="0 0 80 80" fill="none" xmlns="http://www.w3.org/2000/svg">
<path fill-rule="evenodd" clip-rule="evenodd" d="M3 0C1.34315 0 0 1.34315 0 3V77C0 78.6569 1.34315 80 3 80H77C78.6569 80 80 78.6569 80 77V3C80 1.34315 78.6569 0 77 0H3ZM38.9393 53.0607L29.3934 43.5147C28.8076 42.9289 28.8076 41.9792 29.3934 41.3934C29.9792 40.8076 30.9289 40.8076 31.5147 41.3934L38.5 48.3787V28H41.5V48.3787L48.4853 41.3934C49.0711 40.8076 50.0208 40.8076 50.6066 41.3934C51.1924 41.9792 51.1924 42.9289 50.6066 43.5147L41.0607 53.0607C40.4749 53.6464 39.5251 53.6464 38.9393 53.0607Z" fill="white"/>
</svg>
