<svg width="80" height="80" viewBox="0 0 80 80" fill="none" xmlns="http://www.w3.org/2000/svg">
<path fill-rule="evenodd" clip-rule="evenodd" d="M3 0C1.34315 0 0 1.34315 0 3V77C0 78.6569 1.34315 80 3 80H77C78.6569 80 80 78.6569 80 77V3C80 1.34315 78.6569 0 77 0H3ZM26.9393 41.0607L36.4853 50.6066C37.0711 51.1924 38.0208 51.1924 38.6066 50.6066C39.1924 50.0208 39.1924 49.0711 38.6066 48.4853L31.6213 41.5H52V38.5H31.6213L38.6066 31.5147C39.1924 30.9289 39.1924 29.9792 38.6066 29.3934C38.0208 28.8076 37.0711 28.8076 36.4853 29.3934L26.9393 38.9393C26.3536 39.5251 26.3536 40.4749 26.9393 41.0607Z" fill="white"/>
</svg>
