<svg width="80" height="80" viewBox="0 0 80 80" fill="none" xmlns="http://www.w3.org/2000/svg">
<path fill-rule="evenodd" clip-rule="evenodd" d="M3 0C1.34315 0 0 1.34315 0 3V77C0 78.6569 1.34315 80 3 80H77C78.6569 80 80 78.6569 80 77V3C80 1.34315 78.6569 0 77 0H3ZM53.0607 41.0607L43.5147 50.6066C42.9289 51.1924 41.9792 51.1924 41.3934 50.6066C40.8076 50.0208 40.8076 49.0711 41.3934 48.4853L48.3787 41.5H28V38.5H48.3787L41.3934 31.5147C40.8076 30.9289 40.8076 29.9792 41.3934 29.3934C41.9792 28.8076 42.9289 28.8076 43.5147 29.3934L53.0607 38.9393C53.6464 39.5251 53.6464 40.4749 53.0607 41.0607Z" fill="white"/>
</svg>
