<svg width="80" height="80" viewBox="0 0 80 80" fill="none" xmlns="http://www.w3.org/2000/svg">
<path fill-rule="evenodd" clip-rule="evenodd" d="M3 0C1.34315 0 0 1.34315 0 3V77C0 78.6569 1.34315 80 3 80H77C78.6569 80 80 78.6569 80 77V3C80 1.34315 78.6569 0 77 0H3ZM38.9393 26.9393L29.3934 36.4853C28.8076 37.0711 28.8076 38.0208 29.3934 38.6066C29.9792 39.1924 30.9289 39.1924 31.5147 38.6066L38.5 31.6213V52H41.5V31.6213L48.4853 38.6066C49.0711 39.1924 50.0208 39.1924 50.6066 38.6066C51.1924 38.0208 51.1924 37.0711 50.6066 36.4853L41.0607 26.9393C40.4749 26.3536 39.5251 26.3536 38.9393 26.9393Z" fill="white"/>
</svg>
